<svg width="45" height="45" viewBox="0 0 45 45" fill="none" xmlns="http://www.w3.org/2000/svg">
<circle cx="22.5" cy="22.5" r="22.25" fill="white" fill-opacity="0.6" stroke="#1F1F1F" stroke-width="0.5"/>
<path d="M35.2339 17.922C34.7385 17.4266 34.078 17.1376 33.3762 17.1376H30.3624V15.5275C30.3624 15.0734 30.1973 14 28.6284 14H18.3073C16.8211 14 16.656 15.0734 16.656 15.5275V17.1376H13.6422C12.1972 17.1376 11 18.3349 11 19.7798V29.3578C11 30.8028 12.1972 32 13.6422 32H33.3349C34.7798 32 35.9771 30.8028 35.9771 29.3578V19.7798C36.0184 19.078 35.7294 18.4174 35.2339 17.922ZM34.1193 29.3578C34.1193 29.7706 33.789 30.1422 33.3349 30.1422H13.6422C13.2294 30.1422 12.8578 29.8119 12.8578 29.3578V19.7798C12.8578 19.367 13.1881 18.9954 13.6422 18.9954H17.1514C17.8945 18.9954 18.5138 18.3761 18.5138 17.633V15.8578H28.4633V17.633C28.4633 18.3761 29.0826 18.9954 29.8257 18.9954H33.3762C33.5826 18.9954 33.789 19.078 33.9128 19.2431C34.078 19.4083 34.1193 19.5734 34.1193 19.7798V29.3578Z" fill="#1F1F1F"/>
<path d="M23.3441 19.4908C21.1973 19.4908 19.4634 21.2248 19.4634 23.4128C19.4634 25.5596 21.156 27.2523 23.3441 27.2523C25.4909 27.2523 27.2248 25.5183 27.2248 23.4128C27.2248 21.3073 25.4496 19.4908 23.3441 19.4908ZM23.3441 25.3945C22.1881 25.3945 21.3212 24.5275 21.3212 23.4128C21.3212 22.2982 22.2294 21.3486 23.3441 21.3486C24.4588 21.3486 25.367 22.2982 25.367 23.4128C25.367 24.5275 24.4588 25.3945 23.3441 25.3945Z" fill="#1F1F1F"/>
<path d="M15.9955 20.2339H15.046C14.5506 20.2339 14.0964 20.6468 14.0964 21.1835C14.0964 21.7202 14.5093 22.133 15.046 22.133H15.9955C16.4909 22.133 16.9451 21.7202 16.9451 21.1835C16.9451 20.6468 16.5322 20.2339 15.9955 20.2339Z" fill="#1F1F1F"/>
</svg>
