<svg id="图层_1" data-name="图层 1" xmlns="http://www.w3.org/2000/svg" viewBox="0 0 91 71"><defs><style>.cls-1{fill:#1f1f1f;}.cls-2{fill:none;stroke:#1f1f1f;stroke-linecap:round;stroke-linejoin:round;}</style></defs><path class="cls-1" d="M164.5,230a4.5,4.5,0,1,1-4.5,4.5,4.51,4.51,0,0,1,4.5-4.5m0-1a5.5,5.5,0,1,0,5.5,5.5,5.5,5.5,0,0,0-5.5-5.5Z" transform="translate(-159 -169)"/><path class="cls-1" d="M204,195a9,9,0,1,1-9,9,9,9,0,0,1,9-9m0-1a10,10,0,1,0,10,10,10,10,0,0,0-10-10Z" transform="translate(-159 -169)"/><path class="cls-1" d="M244.5,170a4.5,4.5,0,1,1-4.5,4.5,4.51,4.51,0,0,1,4.5-4.5m0-1a5.5,5.5,0,1,0,5.5,5.5,5.5,5.5,0,0,0-5.5-5.5Z" transform="translate(-159 -169)"/><path class="cls-2" d="M201.19,213" transform="translate(-159 -169)"/><path class="cls-2" d="M211.2,197.06" transform="translate(-159 -169)"/><path class="cls-2" d="M209.5,195.5s6-22,30-22" transform="translate(-159 -169)"/><path class="cls-2" d="M200,212.85s-6,22-30,22" transform="translate(-159 -169)"/></svg>