<svg width="45" height="45" viewBox="0 0 45 45" fill="none" xmlns="http://www.w3.org/2000/svg">
<circle cx="22.5" cy="22.5" r="22.25" fill="white" fill-opacity="0.6" stroke="#1F1F1F" stroke-width="0.5"/>
<path d="M31.6064 25.4787C31.2234 25.4787 30.8723 25.7978 30.8723 26.2127V29.0532C30.8723 29.3404 30.6489 29.5638 30.3617 29.5638H14.9787C14.6915 29.5638 14.4681 29.3404 14.4681 29.0532V26.2127C14.4681 25.7978 14.117 25.4787 13.734 25.4787C13.3511 25.4787 13 25.7978 13 26.2127V29.0532C13 30.1383 13.8617 31 14.9468 31H30.3617C31.4468 31 32.3085 30.1383 32.3085 29.0532V26.2127C32.3404 25.7978 31.9894 25.4787 31.6064 25.4787Z" fill="#1F1F1F"/>
<path d="M22.0867 27.9787C22.2143 28.1064 22.4058 28.1702 22.5973 28.1702C22.7888 28.1702 22.9484 28.1064 23.1079 27.9787L27.7356 23.4787C28.0228 23.1915 28.0228 22.7447 27.7356 22.4574C27.4484 22.1702 27.0016 22.1702 26.7143 22.4574L23.3313 25.7766V14.734C23.3313 14.3511 23.0122 14 22.5973 14C22.2143 14 21.8633 14.3191 21.8633 14.734V25.7766L18.4803 22.4574C18.193 22.1702 17.7462 22.2021 17.459 22.4574C17.1718 22.7447 17.2037 23.1915 17.459 23.4787L22.0867 27.9787Z" fill="#1F1F1F"/>
</svg>
