<svg id="图层_1" data-name="图层 1" xmlns="http://www.w3.org/2000/svg" viewBox="0 0 99 50"><defs><style>.cls-1{fill:#fff;}.cls-1,.cls-4{stroke:#000;stroke-miterlimit:10;}.cls-2,.cls-4{fill:none;stroke-linecap:round;}.cls-2{stroke:#1f1f1f;stroke-linejoin:round;}.cls-3{fill:#1f1f1f;}</style></defs><path class="cls-1" d="M200.68,217.17" transform="translate(-151 -167)"/><path class="cls-1" d="M202,206.5" transform="translate(-151 -167)"/><path class="cls-1" d="M198.33,189" transform="translate(-151 -167)"/><path class="cls-2" d="M197.92,203a24.49,24.49,0,1,1,.22-21.46,28.8,28.8,0,0,1,2.36,11,22,22,0,0,0,2.5,10.29c.23.39.41.81.63,1.2a24.5,24.5,0,1,0-.77-22.5l-3.36-6s5,6,10,5l-6.64,1" transform="translate(-151 -167)"/><polygon class="cls-3" points="49.5 10.5 51.5 14.5 55.5 13.5 49.5 10.5"/><path class="cls-4" d="M204.85,202.48" transform="translate(-151 -167)"/></svg>