<svg width="9" height="13" viewBox="0 0 9 13" fill="none" xmlns="http://www.w3.org/2000/svg">
<path d="M1.14179 11.9077L1.14161 11.9079L1.14606 11.9109C1.2824 12.003 1.42093 12.05 1.58656 12.05C1.75415 12.05 1.92004 11.9798 2.03132 11.886L2.03165 11.8857L7.85821 6.8835C7.85825 6.88346 7.8583 6.88342 7.85834 6.88338C7.98433 6.77704 8.05 6.63853 8.05 6.49728C8.05 6.35604 7.98434 6.21755 7.85838 6.11121C7.85832 6.11116 7.85826 6.11111 7.85821 6.11107L2.03165 1.10887L2.03165 1.10887L2.03132 1.10859C1.78065 0.897135 1.39246 0.897135 1.14179 1.10859C1.01572 1.21495 0.95 1.3535 0.95 1.49481C0.95 1.63605 1.01565 1.77454 1.14161 1.88087C1.14167 1.88092 1.14173 1.88097 1.14179 1.88103L6.5118 6.49737L1.14179 11.1353C1.14173 11.1353 1.14166 11.1354 1.14159 11.1355C1.01565 11.2418 0.95 11.3803 0.95 11.5215C0.95 11.6628 1.01572 11.8014 1.14179 11.9077Z" fill="#1F1F1F" stroke="#1F1F1F" stroke-width="0.1"/>
</svg>
