<svg width="45" height="45" viewBox="0 0 45 45" fill="none" xmlns="http://www.w3.org/2000/svg">
<circle cx="22.5" cy="22.5" r="22.25" fill="white" fill-opacity="0.6" stroke="#1F1F1F" stroke-width="0.5"/>
<path d="M22.7794 28.8595C23.1691 28.8595 23.5263 28.4952 23.5263 28.0216V22.5569C23.5263 20.5897 24.9552 18.9867 26.7088 18.9867H30.5733L28.6898 20.9904C28.3975 21.3183 28.3975 21.8283 28.6573 22.1562C28.7872 22.3384 28.9821 22.4112 29.1769 22.4112C29.3718 22.4112 29.5342 22.3384 29.6641 22.1926L32.6517 19.0231C32.8466 18.8045 32.9765 18.4767 32.9765 18.1488C32.9765 17.8209 32.8466 17.5295 32.6517 17.3109L29.6641 14.2142C29.3718 13.9228 28.9171 13.9228 28.6249 14.2507C28.3651 14.5785 28.3651 15.0886 28.6573 15.4165L30.5409 17.3837H26.6439C24.0784 17.3837 22 19.7153 22 22.5934V28.058C22.0649 28.4952 22.3897 28.8595 22.7794 28.8595Z" fill="#1F1F1F"/>
<path d="M32.2833 23.2201C31.8936 23.2201 31.5364 23.5844 31.5364 24.058V29.3405C31.5364 29.9234 31.1142 30.397 30.5946 30.397H16.4356C15.916 30.397 15.4938 29.9234 15.4938 29.3405V24.0216C15.4938 23.5844 15.1691 23.1837 14.7469 23.1837C14.3247 23.1837 14 23.548 14 24.0216V29.3041C14 30.7978 15.0717 32 16.4031 32H30.5946C31.9261 32 32.9978 30.7978 32.9978 29.3041V24.0216C33.0302 23.5844 32.7055 23.2201 32.2833 23.2201Z" fill="#1F1F1F"/>
</svg>
