<svg width="13" height="9" viewBox="0 0 13 9" fill="none" xmlns="http://www.w3.org/2000/svg">
<path d="M11.9077 7.85821L11.9079 7.85839L11.9109 7.85394C12.003 7.7176 12.05 7.57907 12.05 7.41344C12.05 7.24585 11.9798 7.07996 11.886 6.96868L11.8857 6.96835L6.8835 1.14179C6.88346 1.14175 6.88342 1.1417 6.88338 1.14166C6.77704 1.01567 6.63853 0.950001 6.49728 0.950001C6.35604 0.950001 6.21755 1.01566 6.11121 1.14162C6.11116 1.14168 6.11111 1.14174 6.11107 1.14179L1.10887 6.96835L1.10887 6.96835L1.10859 6.96868C0.897135 7.21935 0.897135 7.60754 1.10859 7.85821C1.21495 7.98428 1.3535 8.05 1.49481 8.05C1.63605 8.05 1.77454 7.98435 1.88087 7.85839C1.88092 7.85833 1.88097 7.85827 1.88103 7.85821L6.49737 2.4882L11.1353 7.85821C11.1353 7.85827 11.1354 7.85834 11.1355 7.85841C11.2418 7.98435 11.3803 8.05 11.5215 8.05C11.6628 8.05 11.8014 7.98428 11.9077 7.85821Z" fill="#1F1F1F" stroke="#1F1F1F" stroke-width="0.1"/>
</svg>
